<svg width="16" height="16" viewBox="0 0 16 16" fill="none" xmlns="http://www.w3.org/2000/svg">
<g id="hockey_puck_icon_137499 1">
<path id="Vector" d="M7.99967 4C4.33301 4 1.33301 5.04667 1.33301 6.33333C1.33301 7.62 4.33301 8.66667 7.99967 8.66667C11.6663 8.66667 14.6663 7.62 14.6663 6.33333C14.6663 5.04667 11.6663 4 7.99967 4ZM1.33301 7.66667V11C1.33301 12.2867 4.33301 13.3333 7.99967 13.3333C11.6663 13.3333 14.6663 12.2867 14.6663 11V7.66667C14.2197 7.97333 13.7197 8.38 13.153 8.57333C11.7463 9.06667 9.96634 9.33333 7.99967 9.33333C6.03301 9.33333 4.25301 9.06667 2.84634 8.57333C2.27967 8.38 1.77967 7.97333 1.33301 7.66667Z" fill="#2C2C2C"/>
</g>
</svg>
