<svg width="328" height="261" viewBox="0 0 328 261" fill="none" xmlns="http://www.w3.org/2000/svg">
    <g clip-path="url(#clip0_2934_10682)">
        <path d="M16 261C7.16345 261 0 253.837 0 245L0 45C0 20.1472 20.1472 0 45 0H283C307.853 0 328 20.1472 328 45V245C328 253.837 320.837 261 312 261H16Z" fill="#EBEBEB"/>
        <path d="M327.833 259.977H0" stroke="black" stroke-opacity="0.2" stroke-width="2"/>
        <path d="M203.257 259.978C203.257 238.167 185.643 220.485 163.917 220.485C142.19 220.485 124.577 238.167 124.577 259.978C124.577 281.789 142.19 299.471 163.917 299.471C185.643 299.471 203.257 281.789 203.257 259.978Z" stroke="black" stroke-opacity="0.2" stroke-width="2"/>
        <path d="M0 176.164L327.833 176.164" stroke="black" stroke-opacity="0.2" stroke-width="2"/>
        <path d="M145.34 23.7707C145.34 28.7171 147.297 33.4607 150.781 36.958C154.265 40.4553 158.99 42.42 163.917 42.42C168.844 42.42 173.57 40.4553 177.053 36.958C180.537 33.4607 182.494 28.7171 182.494 23.7707L145.34 23.7707Z" stroke="black" stroke-opacity="0.2" stroke-width="2"/>
        <path d="M0 23.769L327.833 23.769" stroke="black" stroke-opacity="0.2" stroke-width="2"/>
        <path d="M38.2473 89.5896C38.2473 62.3255 60.2637 40.2236 87.4222 40.2236C114.581 40.2236 136.597 62.3255 136.597 89.5896C136.597 116.854 114.581 138.956 87.4222 138.956C60.2637 138.956 38.2473 116.854 38.2473 89.5896Z" stroke="black" stroke-opacity="0.2" stroke-width="2"/>
        <path d="M84.1435 89.5904C84.1435 87.7728 85.6113 86.2993 87.4219 86.2993C89.2324 86.2993 90.7002 87.7728 90.7002 89.5904C90.7002 91.408 89.2324 92.8815 87.4219 92.8815C85.6113 92.8815 84.1435 91.408 84.1435 89.5904Z" fill="black" fill-opacity="0.2"/>
        <path d="M135.504 23.769L118.02 -19.0148" stroke="black" stroke-opacity="0.2" stroke-width="2"/>
        <path d="M192.329 23.769L209.814 -19.0148" stroke="black" stroke-opacity="0.2" stroke-width="2"/>
        <path d="M191.237 89.5896C191.237 62.3255 213.253 40.2236 240.412 40.2236C267.57 40.2236 289.586 62.3255 289.586 89.5896C289.586 116.854 267.57 138.956 240.412 138.956C213.253 138.956 191.237 116.854 191.237 89.5896Z" stroke="black" stroke-opacity="0.2" stroke-width="2"/>
        <path d="M237.133 89.5904C237.133 87.7728 238.601 86.2993 240.411 86.2993C242.222 86.2993 243.689 87.7728 243.689 89.5904C243.689 91.408 242.222 92.8815 240.411 92.8815C238.601 92.8815 237.133 91.408 237.133 89.5904Z" fill="black" fill-opacity="0.2"/>
        <path d="M30.5977 97.2688H39.3399" stroke="black" stroke-opacity="0.2" stroke-width="2"/>
        <path d="M135.504 97.2686H144.246" stroke="black" stroke-opacity="0.2" stroke-width="2"/>
        <path d="M30.5977 81.9113H39.3399" stroke="black" stroke-opacity="0.2" stroke-width="2"/>
        <path d="M135.504 81.9113H144.246" stroke="black" stroke-opacity="0.2" stroke-width="2"/>
        <path d="M183.585 97.2688H192.328" stroke="black" stroke-opacity="0.2" stroke-width="2"/>
        <path d="M288.492 97.2688H297.234" stroke="black" stroke-opacity="0.2" stroke-width="2"/>
        <path d="M183.585 81.9113H192.328" stroke="black" stroke-opacity="0.2" stroke-width="2"/>
        <path d="M288.492 81.9113H297.234" stroke="black" stroke-opacity="0.2" stroke-width="2"/>
        <path d="M160.639 259.977C160.639 261.795 162.106 263.268 163.917 263.268C165.728 263.268 167.195 261.795 167.195 259.977C167.195 258.159 165.728 256.686 163.917 256.686C162.106 256.686 160.639 258.159 160.639 259.977Z" fill="black" fill-opacity="0.2"/>
    </g>
    <path d="M16 260C7.71573 260 1 253.284 1 245L1 45C1 20.6995 20.6995 1 45 1H283C307.301 1 327 20.6995 327 45V245C327 253.284 320.284 260 312 260H16Z" stroke="#D5D5D5" stroke-width="2"/>
    <defs>
        <clipPath id="clip0_2934_10682">
            <path d="M16 261C7.16345 261 0 253.837 0 245L0 45C0 20.1472 20.1472 0 45 0H283C307.853 0 328 20.1472 328 45V245C328 253.837 320.837 261 312 261H16Z" fill="white"/>
        </clipPath>
    </defs>
</svg>
