<svg width="104" height="64" viewBox="0 0 104 64" fill="none" xmlns="http://www.w3.org/2000/svg">
    <path d="M84.816 16.5239C84.6373 14.0915 82.7641 11.6339 78.7761 8.60785V8.60543C78.9636 8.20092 79.0589 6.53859 77.0708 5.54227C72.0667 3.03922 61.3184 0.403314 53.2454 0C53.3243 0.204649 53.5137 0.77611 53.6479 1.20156C44.0263 0.782097 34.2147 1.23567 26.9497 1.90766C24.5179 2.13266 16.957 3.1182 16.957 3.1182L34.0398 10.0212C32.216 10.4101 30.3659 10.8296 28.5039 11.2856C26.6031 11.753 20.9732 13.5643 20.9732 13.5643C20.9732 13.5643 25.9724 14.5953 27.8012 14.9711C31.2023 15.6688 40.79 17.604 44.8827 18.4968C44.3416 20.0777 40.8176 31.0253 40.8176 31.0253C40.8176 31.0253 45.3817 26.4649 46.7993 25.191C48.601 23.5705 49.196 23.0206 49.7371 22.6011C49.5295 24.9318 49.07 29.9367 48.9521 31.1694C48.8568 32.1544 49.0618 33.1765 49.6656 33.7737C50.2405 34.3422 51.2467 34.6144 52.132 34.5222C52.8541 34.4462 53.75 33.9729 54.4052 33.4619C57.1562 31.3149 64.0456 25.5099 69.873 20.1705C70.1996 20.1238 70.5275 20.0813 70.856 20.0478C74.8553 19.6301 78.7284 20.2321 79.3899 22.1206C79.8237 23.3617 79.3774 24.1264 78.9742 25.3142C79.6607 24.6967 81.4312 23.1553 82.1239 22.336C83.2506 21.0047 84.9929 18.936 84.816 16.5239Z" fill="#231F20"/>
    <path d="M53.5638 7.05849C53.5902 7.05609 53.6171 7.0525 53.6422 7.05071C53.4058 6.61807 53.2058 6.17048 53.0272 5.84435C56.3048 5.47276 63.892 5.84435 66.9207 7.67662C69.95 9.50828 72.7017 10.1366 74.7731 9.69915C74.5887 10.2024 73.8452 10.8008 73.8452 10.8008C73.1248 10.9468 72.3606 10.9911 71.4954 10.8684C70.6396 12.2077 68.5325 12.0419 65.2092 13.6258C61.6594 15.318 56.3687 18.1197 51.8034 21.2259C51.6679 22.7818 51.3815 25.8048 51.3426 26.2757L57.9304 24.0108L56.6007 22.9421L62.2237 21.7214C63.134 20.3284 70.1024 13.9459 71.2046 13.171C71.6547 13.0855 72.029 13.0143 72.3261 12.9921C73.7743 11.775 75.3956 10.6315 77.1335 9.77819C77.1629 9.68481 77.1899 9.59386 77.205 9.50711C77.3059 8.93566 77.262 8.10684 76.4696 7.71432C63.0688 1.08418 38.2804 3.22461 24.9316 4.24845L37.5205 9.48256C43.5447 8.31393 49.1164 7.52284 53.5638 7.05849Z" fill="#C2B39C"/>
    <path d="M56.6119 22.7275L57.943 23.7962L51.3539 26.0611C51.3539 26.0611 51.0003 30.099 50.9081 31.0505C50.784 32.3418 51.9407 32.7403 53.0384 31.884C55.486 29.9728 61.1829 25.2862 66.4919 20.5841L56.6119 22.7275Z" fill="#7F7764"/>
    <path d="M68.3643 11.5698C65.8641 11.9475 64.6598 10.2809 64.439 8.52285C63.5406 8.38162 62.646 8.29971 61.8391 8.23206C61.799 10.4365 63.3758 12.839 67.1713 12.2969C68.5799 12.097 69.2564 11.6435 69.5655 11.1762C69.2784 11.349 68.8941 11.4915 68.3643 11.5698Z" fill="white"/>
    <path d="M74.6055 13.0083C74.6055 13.0083 74.8581 12.3548 75.8788 11.9108C77.4091 12.5499 78.1032 13.4278 78.1032 13.4278L74.6055 13.0083ZM77.1471 9.60706C71.9228 12.17 67.7186 17.3651 66.2634 19.2555C70.5761 17.9306 79.4837 17.2107 80.9219 21.3408C83.2854 18.4237 85.6696 15.8889 77.1471 9.60706Z" fill="#F0EBD8"/>
    <path d="M46.0753 12.8899L56.989 11.7398L51.0933 15.8513L51.2199 14.174L46.0753 12.8899ZM62.622 12.7846C60.8328 11.8332 60.2603 9.97277 60.456 8.23206C60.4541 8.23268 60.4522 8.23206 60.4509 8.23206C57.5921 8.43852 42.2089 9.58922 28.301 13.0897C32.7924 13.8312 47.3762 17.0505 47.3762 17.0505C47.3762 17.0505 45.78 21.5384 44.9568 24.3939C50.2795 19.9634 53.7985 17.3545 62.622 12.7846Z" fill="#ED1C24"/>
    <path d="M54.3252 62.5293L56.2303 53.4772H65.4772L64.0323 55.511H58.7216L57.5534 61.0576C57.3734 61.9118 56.5592 62.5293 55.6118 62.5293H54.3252Z" fill="#231F20"/>
    <path d="M5.54209 59.2139L7.94473 55.6625H8.2752L9.24787 59.2139H5.54209ZM10.5427 53.4774H4.34338C4.32307 53.527 4.30284 53.579 4.28409 53.6286C4.90971 53.8448 5.81382 54.2968 5.34305 55.0093L0 62.5295H2.19947C2.88275 62.5295 3.51825 62.205 3.87931 61.6715L4.29397 61.0583H9.75343L10.1561 62.5295H13.2347L10.5427 53.4774Z" fill="#231F20"/>
    <path d="M31.9785 59.2136L34.3817 55.6623H34.712L35.6852 59.2136H31.9785ZM36.9799 53.4772H30.8083C30.7887 53.5268 30.7684 53.5788 30.7495 53.6284C31.3288 53.8284 32.145 54.2316 31.8885 54.8558L26.437 62.5293H28.6365C29.3201 62.5293 29.9556 62.2048 30.3156 61.6713L30.7312 61.0581H36.1901L36.5928 62.5293H39.6721L36.9799 53.4772Z" fill="#231F20"/>
    <path d="M67.947 59.2136L70.3502 55.6623H70.6805L71.6531 59.2136H67.947ZM72.9484 53.4772H66.7532C66.7349 53.5268 66.7139 53.5788 66.695 53.6284C67.3081 53.8403 68.1866 54.2803 67.7765 54.9689L62.4055 62.5293H64.6044C65.2879 62.5293 65.9227 62.2048 66.2842 61.6713L66.6997 61.0581H72.1586L72.562 62.5293H75.64L72.9484 53.4772Z" fill="#231F20"/>
    <path d="M98.0749 60.6844H92.903L95.2629 55.322H99.2038L98.0749 60.6844ZM100.994 60.6844L102.512 53.4772H91.234C91.2144 53.5268 91.1941 53.5788 91.1752 53.6284C91.7856 53.8394 92.5125 54.2245 92.2526 54.9546L89.7316 60.6844H87.9016L87.2031 64H88.4904C89.4372 64 90.2513 63.383 90.432 62.5293H99.6789L99.3696 64H102.287L102.986 60.6844H100.994Z" fill="#231F20"/>
    <path d="M23.3287 56.7489C23.081 57.0114 22.7331 57.144 22.2932 57.144H18.3685L18.7638 55.2858H22.618C23.2941 55.2858 23.6379 55.5315 23.6379 56.0159C23.6379 56.2798 23.5283 56.5404 23.3287 56.7489ZM22.9334 60.2893C22.6492 60.5928 22.258 60.7408 21.7389 60.7408H17.6132L18.0518 58.672H22.1057C22.3832 58.672 23.2278 58.672 23.2278 59.458C23.2278 59.8059 23.1324 60.0779 22.9334 60.2893ZM25.1979 57.7329L25.0111 57.6842L25.0457 57.5573L25.2277 57.5162C25.6845 57.4132 26.073 57.1421 26.2733 56.9383C26.6902 56.5136 26.9352 56.0383 26.9352 55.3354C26.9352 53.7993 25.3468 53.4772 24.0129 53.4772H14.9007C14.8804 53.5268 14.8601 53.5788 14.8412 53.6284C15.4651 53.8441 16.0654 54.1944 15.9017 55.0014L14.3167 62.5293H22.503C23.956 62.5293 24.9935 62.1924 25.6744 61.4995C26.1806 60.9875 26.4371 60.2974 26.4371 59.448C26.4371 58.599 26.0209 57.9615 25.1979 57.7329Z" fill="#231F20"/>
    <path d="M51.2013 53.4772L50.4765 56.8892H44.8653L45.5901 53.4772H41.3454C41.3251 53.5268 41.3048 53.5788 41.2858 53.6284C41.9111 53.8446 42.5155 54.1963 42.345 55.009H42.3456L40.7532 62.5293H42.0445C42.9906 62.5293 43.8041 61.9142 43.9862 61.0614L44.4396 58.9316L50.0508 58.9188L49.2847 62.5293H52.2043L54.1209 53.4772H51.2013Z" fill="#231F20"/>
    <path d="M85.6841 57.1593C85.4831 57.4089 85.0899 57.7062 84.3535 57.7062H80.6577L81.1388 55.45H84.763C85.5765 55.45 85.9887 55.7343 85.9887 56.2955C85.9887 56.4793 85.948 56.8362 85.6841 57.1593ZM85.9447 53.4772H77.3049C77.2852 53.5268 77.2649 53.5788 77.2453 53.6284C77.8713 53.8446 78.4757 54.1963 78.3045 55.009L76.7222 62.5293H78.0087C78.9562 62.5293 79.7717 61.9113 79.9504 61.0561L80.2759 59.5048H84.8063C86.4692 59.5048 87.6454 59.1087 88.402 58.2936C88.9861 57.6613 89.2832 56.8061 89.2832 55.7515C89.2832 54.1996 88.222 53.4772 85.9447 53.4772Z" fill="#231F20"/>
    <path d="M7.77131 46.5979L9.03375 45.2111H10.4453L8.36962 47.4054L9.74305 49.8277L8.36558 49.8241L7.47614 48.1859L5.98353 49.8241H4.5918L6.89602 47.3952L5.67327 45.2075L7.04764 45.2111L7.77131 46.5979Z" fill="#231F20"/>
    <path d="M11.8258 47.4401C11.8258 47.6215 11.8575 47.7884 11.9218 47.9408C11.9861 48.093 12.0757 48.2257 12.1932 48.3393C12.3098 48.4523 12.4494 48.5405 12.6105 48.6039C12.7716 48.6673 12.9486 48.6986 13.1406 48.6986C13.3048 48.6986 13.4659 48.6782 13.6246 48.6374C13.7817 48.5966 13.9309 48.539 14.0706 48.4647C14.2118 48.3904 14.3403 48.3 14.4586 48.1951C14.5776 48.0894 14.6801 47.9735 14.7649 47.8453C14.8517 47.7177 14.9179 47.5807 14.9664 47.4335C15.014 47.2863 15.0398 47.1325 15.0398 46.9722C15.0398 46.7915 15.0057 46.6239 14.9406 46.4701C14.8755 46.3171 14.7845 46.1837 14.6688 46.0715C14.5537 45.96 14.4149 45.8718 14.2523 45.8084C14.0888 45.745 13.9111 45.7137 13.7167 45.7137C13.4723 45.7137 13.2374 45.7589 13.0112 45.8478C12.7843 45.9374 12.5827 46.0591 12.4074 46.2136C12.2312 46.3688 12.0899 46.5517 11.9844 46.7616C11.8782 46.9722 11.8258 47.1981 11.8258 47.4401ZM10.6475 47.5356C10.6475 47.2863 10.6887 47.0459 10.7712 46.8126C10.8529 46.5794 10.9688 46.3615 11.1164 46.1582C11.264 45.9542 11.4402 45.7691 11.6424 45.6C11.8456 45.4317 12.0678 45.2874 12.3074 45.1679C12.5471 45.0476 12.8017 44.9551 13.0699 44.888C13.3389 44.821 13.6134 44.7882 13.8936 44.7882C14.2332 44.7882 14.5459 44.8414 14.83 44.9492C15.1142 45.0564 15.3592 45.2036 15.5648 45.3901C15.7705 45.5759 15.9307 45.7961 16.0444 46.0496C16.1601 46.3032 16.217 46.5758 16.217 46.8666C16.217 47.1158 16.1746 47.3562 16.0919 47.5895C16.0072 47.8227 15.8914 48.0413 15.7436 48.2461C15.5969 48.4501 15.4201 48.6367 15.2176 48.8058C15.014 48.9741 14.7928 49.1184 14.5514 49.2394C14.3101 49.361 14.0555 49.4543 13.7873 49.5214C13.5183 49.5877 13.2445 49.6212 12.9668 49.6212C12.6272 49.6212 12.3145 49.5673 12.0312 49.4601C11.7457 49.3531 11.502 49.2051 11.2981 49.0178C11.0934 48.8298 10.9339 48.609 10.8188 48.3539C10.7045 48.0996 10.6475 47.827 10.6475 47.5356Z" fill="#231F20"/>
    <path d="M18.545 47.5169L20.9304 45.2075H22.2894L20.1325 47.2625L21.4802 49.8205H20.0994L19.2199 48.0532L18.267 48.9591L18.1016 49.8205H16.9307L17.8174 45.2075H18.9874L18.545 47.5169Z" fill="#231F20"/>
    <path d="M24.0596 47.5169L26.446 45.2075H27.8051L25.6481 47.2625L26.9958 49.8205H25.6151L24.7366 48.0532L23.7837 48.9591L23.6173 49.8205H22.4463L23.333 45.2075H24.503L24.0596 47.5169Z" fill="#231F20"/>
    <path d="M28.8487 45.2075H32.3864L32.2097 46.133H29.8419L29.6569 47.0768H31.6898L31.5162 47.9986H29.4801L29.3075 48.8979H31.7105L31.5327 49.8205H27.9619L28.8487 45.2075Z" fill="#231F20"/>
    <path d="M37.4939 43.5847C37.4536 43.729 37.3937 43.8639 37.312 43.987C37.2314 44.1102 37.1301 44.2158 37.0071 44.3054C36.8862 44.395 36.7436 44.4643 36.5823 44.5146C36.4211 44.5642 36.2423 44.589 36.046 44.589C35.8486 44.589 35.678 44.5642 35.5375 44.5146C35.3969 44.4643 35.2811 44.395 35.1943 44.3054C35.1075 44.2158 35.0465 44.1102 35.0114 43.987C34.9773 43.8639 34.967 43.729 34.9825 43.5847L35.7648 43.5374C35.7772 43.5891 35.7917 43.6357 35.8093 43.6765C35.8258 43.7173 35.8486 43.7516 35.8796 43.7801C35.9095 43.8084 35.9478 43.8296 35.9953 43.8441C36.0439 43.8594 36.1059 43.8661 36.1824 43.8661C36.2589 43.8661 36.324 43.8594 36.3756 43.8441C36.4294 43.8296 36.4749 43.8084 36.5162 43.7801C36.5565 43.7516 36.5937 43.7173 36.6247 43.6765C36.6578 43.6357 36.6909 43.5891 36.725 43.5374L37.4939 43.5847ZM33.6523 45.1385H34.8161L34.2838 47.896L37.2118 45.1385H38.2308L37.3451 49.7514H36.1741L36.7064 46.9873L33.7774 49.7514H32.7666L33.6523 45.1385Z" fill="#231F20"/>
    <path d="M49.8238 49.8189H48.6663L48.5391 49.0392H46.3905L45.8861 49.8189H44.6169L47.6596 45.2163H48.997L49.8238 49.8189ZM48.4482 48.1766L48.1485 46.1962L46.8938 48.1766H48.4482Z" fill="#231F20"/>
    <path d="M51.7887 49.8189H50.4441L52.015 48.0593C51.7939 47.9719 51.6037 47.827 51.4435 47.6246C51.2885 47.4221 51.211 47.1829 51.211 46.9069C51.211 46.7183 51.2461 46.532 51.3164 46.348C51.3908 46.164 51.5035 45.9846 51.6543 45.8097C51.8042 45.6303 52.0192 45.4878 52.3003 45.3819C52.5804 45.2716 52.909 45.2163 53.2842 45.2163H55.6065L54.5017 49.8189H53.4351L53.8258 48.1835H53.1643L51.7887 49.8189ZM52.9462 47.321H54.0356L54.3291 46.0788H53.217C52.9514 46.0788 52.7354 46.1478 52.5711 46.2859C52.4057 46.4239 52.323 46.5964 52.323 46.8035C52.323 46.9507 52.3799 47.0748 52.4956 47.176C52.6103 47.2726 52.7612 47.321 52.9462 47.321Z" fill="#231F20"/>
    <path d="M39.7368 45.2075H40.9078L40.546 47.0768H42.7361L43.0978 45.2075H44.2719L43.3851 49.8205H42.2121L42.5583 47.9986H40.3683L40.021 49.8205H38.8511L39.7368 45.2075Z" fill="#231F20"/>
    <path d="M64.1859 49.8189H63.0283L62.9012 49.0392H60.7525L60.2492 49.8189H58.979L62.0217 45.2163H63.3591L64.1859 49.8189ZM62.8113 48.1766L62.5105 46.1962L61.2558 48.1766H62.8113Z" fill="#231F20"/>
    <path d="M69.3138 49.8189H68.0591L66.9543 47.9351L66.4365 48.4043L66.0903 49.8189H65.0237L66.1285 45.2163H67.1951L66.7218 47.1899L68.9087 45.2163H70.2833L67.7739 47.3762L69.3138 49.8189Z" fill="#231F20"/>
    <path d="M74.8494 49.8189H73.6929L73.5648 49.0392H71.4161L70.9128 49.8189H69.6426L72.6853 45.2163H74.0226L74.8494 49.8189ZM73.4749 48.1766L73.1741 46.1962L71.9194 48.1766H73.4749Z" fill="#231F20"/>
    <path d="M75.1843 50.6676L75.5677 49.0323C75.8582 48.9954 76.0959 48.885 76.2819 48.701C76.4669 48.5124 76.6643 48.1352 76.8752 47.5694L77.7319 45.2163H81.2934L80.3912 48.9563H80.8501L80.4367 50.6676H79.3701L79.5726 49.8189H76.4473L76.2437 50.6676H75.1843ZM78.4905 46.0788L77.919 47.6384C77.704 48.2272 77.3961 48.6665 76.995 48.9563H79.3246L80.016 46.0788H78.4905Z" fill="#231F20"/>
    <path d="M85.194 49.8189H81.647L82.7518 45.2163H86.2978L86.088 46.0788H83.6158L83.3833 47.0519H85.8027L85.5919 47.9144H83.1724L82.9244 48.9563H85.3966L85.194 49.8189Z" fill="#231F20"/>
    <path d="M91.8352 49.8189H90.7614L91.5572 46.4998L89.3486 49.8189H88.8825L88.2665 46.4998L87.4707 49.8189H86.4031L87.5079 45.2163H88.9652L89.484 48.0938L91.4001 45.2163H92.9401L91.8352 49.8189Z" fill="#231F20"/>
    <path d="M94.2362 49.8189H93.2068L94.3106 45.2163H95.3782L94.6641 48.2111L97.6995 45.2163H98.7961L97.6923 49.8189H96.6174L97.3688 46.7138L94.2362 49.8189Z" fill="#231F20"/>
    <path d="M100.183 49.8189H98.8374L100.408 48.0593C100.188 47.9719 99.997 47.827 99.8368 47.6246C99.6818 47.4221 99.6043 47.1829 99.6043 46.9069C99.6043 46.7183 99.6394 46.532 99.7097 46.348C99.7841 46.164 99.8978 45.9846 100.048 45.8097C100.198 45.6303 100.414 45.4878 100.694 45.3819C100.975 45.2716 101.302 45.2163 101.677 45.2163H104L102.895 49.8189H101.828L102.219 48.1835H101.558L100.183 49.8189ZM101.34 47.321H102.429L102.722 46.0788H101.61C101.345 46.0788 101.13 46.1478 100.964 46.2859C100.799 46.4239 100.716 46.5964 100.716 46.8035C100.716 46.9507 100.774 47.0748 100.889 47.176C101.005 47.2726 101.155 47.321 101.34 47.321Z" fill="#231F20"/>
</svg>
