<svg width="41" height="23" viewBox="0 0 41 23" fill="none" xmlns="http://www.w3.org/2000/svg">
    <path d="M40.9931 10.5933C40.8851 9.03462 39.7541 7.45869 37.3445 5.51803V5.51728C37.4578 5.25763 37.5156 4.19199 36.3148 3.55261C33.2906 1.94816 26.7992 0.258155 21.9213 0C21.9693 0.131323 22.0834 0.497546 22.1644 0.770708C16.7845 0.549431 11.3957 0.700381 6.03659 1.22248C4.56722 1.36731 0 1.99919 0 1.99919L10.3194 6.42457C9.21848 6.67372 8.10032 6.94238 6.9754 7.23506C5.82722 7.53523 2.42619 8.69617 2.42619 8.69617L6.5514 9.59821C8.60537 10.0455 14.3973 11.2867 16.87 11.8586C16.5428 12.8717 14.4138 19.8906 14.4138 19.8906C14.4138 19.8906 17.171 16.9668 18.0272 16.1504C19.1154 15.111 19.4756 14.759 19.802 14.4896C19.6767 15.9845 19.399 19.1927 19.3277 19.9829C19.2707 20.6148 19.3938 21.2699 19.7585 21.6526C19.9571 21.8361 20.1934 21.9742 20.4507 22.0571C20.7081 22.14 20.9805 22.1659 21.2489 22.1329C21.7582 22.0303 22.2318 21.7958 22.6222 21.453C24.2837 20.0767 28.4457 16.3552 31.9653 12.9317C32.1634 12.9017 32.3608 12.8739 32.5596 12.8529C34.9761 12.585 37.3152 12.9707 37.7152 14.1819C37.9764 14.9774 37.7077 15.4675 37.4638 16.2292C37.878 15.8329 38.9482 14.8453 39.3662 14.32C40.0468 13.466 41.0997 12.14 40.9924 10.5933" fill="black"/>
    <path d="M22.121 4.41528L22.1682 4.41003C22.0257 4.13237 21.9056 3.84569 21.7975 3.63707C23.7772 3.39844 28.3609 3.63707 30.1905 4.81152C32.0201 5.98597 33.6823 6.38896 34.9333 6.10829C34.7965 6.37918 34.606 6.61944 34.3735 6.81447C33.907 6.91644 33.4256 6.9312 32.9537 6.858C32.4359 7.71576 31.1639 7.60994 29.1564 8.62605C26.3409 10.049 23.634 11.6774 21.0576 13.4979C20.9765 14.496 20.8032 16.4337 20.7799 16.7361L24.7588 15.284L23.9558 14.5988L27.3523 13.8161C27.9024 12.9231 32.1117 8.83091 32.7781 8.33411C33.0015 8.28364 33.2274 8.24531 33.455 8.21929C34.3351 7.4161 35.3104 6.72401 36.3592 6.15857C36.3773 6.10175 36.3919 6.04385 36.4027 5.98522C36.4628 5.619 36.4365 5.08767 35.9585 4.83553C27.8626 0.585007 12.889 1.95757 4.82471 2.61421L12.4297 5.96871C16.0694 5.21976 19.4344 4.71245 22.121 4.41528" fill="#BFBD9C"/>
    <path d="M23.9575 14.5994L24.7612 15.2846L20.7808 16.7367C20.7808 16.7367 20.5677 19.3257 20.5114 19.9351C20.4364 20.7628 21.1358 21.018 21.7992 20.4694C23.2776 19.2439 26.7184 16.2399 29.9265 13.2246L23.9575 14.5994Z" fill="#6F7757"/>
    <path d="M31.0541 7.34596C29.5442 7.58761 28.8163 6.51972 28.6827 5.39255C28.1401 5.30249 27.5998 5.24997 27.1128 5.20569C27.088 6.61953 28.0403 8.15944 30.3337 7.81199C31.1847 7.68441 31.5929 7.39324 31.7798 7.09381C31.558 7.22721 31.3109 7.31308 31.0541 7.34596" fill="#FEFEFE"/>
    <path d="M34.8269 8.33937C34.986 8.01667 35.2605 7.76546 35.5961 7.63546C36.1144 7.8489 36.5748 8.18221 36.9394 8.60803L34.8269 8.33937ZM36.3623 6.15858C33.2059 7.80205 30.6664 11.1325 29.7876 12.3445C32.3924 11.4958 37.7731 11.0335 38.6429 13.6818C40.0702 11.8117 41.5096 10.1862 36.3615 6.15857L36.3623 6.15858Z" fill="#F2F2D9"/>
    <path d="M17.5958 8.24458L24.1885 7.50764L20.6268 10.1432L20.7034 9.06781L17.5958 8.24458ZM27.5917 8.17704C26.5103 7.56692 26.1644 6.37446 26.2822 5.25854H26.2799C24.5524 5.39137 15.2596 6.12906 6.8584 8.3729C9.57126 8.84793 18.3815 10.9124 18.3815 10.9124C18.3815 10.9124 17.4172 13.7896 16.9204 15.6207C20.1353 12.7795 22.2606 11.1068 27.5917 8.17704Z" fill="#FF0000"/>
</svg>
