<svg width="328" height="665" viewBox="0 0 328 665" fill="none" xmlns="http://www.w3.org/2000/svg">
    <g clip-path="url(#clip0_626_25581)">
        <path d="M328 332.5H0" stroke="#D5D5D5" stroke-width="2"/>
        <path d="M203.359 332.499C203.359 310.825 185.737 293.254 163.999 293.254C142.261 293.254 124.639 310.825 124.639 332.499C124.639 354.174 142.261 371.745 163.999 371.745C185.737 371.745 203.359 354.174 203.359 332.499Z" stroke="#D5D5D5" stroke-width="2"/>
        <path d="M0 249.211L328 249.211" stroke="#D5D5D5" stroke-width="2"/>
        <path d="M87.4689 109.017L144.322 43.6067H183.682L240.536 109.017V158.074H87.4689V109.017Z" fill="#D5D5D5"/>
        <path d="M145.412 43.6071C145.412 48.5227 147.371 53.2365 150.856 56.712C154.342 60.1874 159.069 62.1399 163.999 62.1399C168.929 62.1399 173.657 60.1874 177.142 56.712C180.628 53.2365 182.586 48.5227 182.586 43.6071H145.412Z" stroke="#979797" stroke-width="2"/>
        <path d="M87.4689 555.984L144.322 621.394H183.682L240.536 555.984V506.927H87.4689V555.984Z" fill="#D5D5D5"/>
        <path d="M145.412 621.394C145.412 616.479 147.371 611.765 150.856 608.289C154.342 604.814 159.069 602.861 163.999 602.861C168.929 602.861 173.657 604.814 177.142 608.289C180.628 611.765 182.586 616.479 182.586 621.394H145.412Z" stroke="#979797" stroke-width="2"/>
        <path d="M0 43.6062L328 43.6062" stroke="#D5D5D5" stroke-width="2"/>
        <path d="M38.265 109.017C38.265 81.923 60.2926 59.9592 87.465 59.9592C114.637 59.9592 136.665 81.923 136.665 109.017C136.665 136.11 114.637 158.074 87.465 158.074C60.2926 158.074 38.265 136.11 38.265 109.017Z" stroke="#979797" stroke-width="2"/>
        <path d="M84.1873 109.017C84.1873 107.211 85.6558 105.746 87.4673 105.746C89.2788 105.746 90.7473 107.211 90.7473 109.017C90.7473 110.823 89.2788 112.287 87.4673 112.287C85.6558 112.287 84.1873 110.823 84.1873 109.017Z" fill="#979797"/>
        <path d="M135.576 43.6062L118.082 1.0898" stroke="#D5D5D5" stroke-width="2"/>
        <path d="M192.428 43.6062L209.921 1.0898" stroke="#D5D5D5" stroke-width="2"/>
        <path d="M191.332 109.017C191.332 81.923 213.36 59.9592 240.532 59.9592C267.704 59.9592 289.732 81.923 289.732 109.017C289.732 136.11 267.704 158.074 240.532 158.074C213.36 158.074 191.332 136.11 191.332 109.017Z" stroke="#979797" stroke-width="2"/>
        <path d="M237.254 109.017C237.254 107.211 238.723 105.746 240.534 105.746C242.346 105.746 243.814 107.211 243.814 109.017C243.814 110.823 242.346 112.287 240.534 112.287C238.723 112.287 237.254 110.823 237.254 109.017Z" fill="#979797"/>
        <path d="M0 415.789H328" stroke="#D5D5D5" stroke-width="2"/>
        <path d="M30.6133 563.615H39.3599" stroke="#979797" stroke-width="2"/>
        <path d="M135.572 563.615H144.319" stroke="#979797" stroke-width="2"/>
        <path d="M30.6134 548.353H39.3601" stroke="#979797" stroke-width="2"/>
        <path d="M135.572 548.353H144.319" stroke="#979797" stroke-width="2"/>
        <path d="M183.68 563.615H192.427" stroke="#979797" stroke-width="2"/>
        <path d="M288.639 563.615H297.386" stroke="#979797" stroke-width="2"/>
        <path d="M183.68 548.353H192.427" stroke="#979797" stroke-width="2"/>
        <path d="M288.639 548.353H297.386" stroke="#979797" stroke-width="2"/>
        <path d="M30.6134 116.647H39.3601" stroke="#979797" stroke-width="2"/>
        <path d="M135.572 116.647H144.319" stroke="#979797" stroke-width="2"/>
        <path d="M30.6133 101.385H39.3599" stroke="#979797" stroke-width="2"/>
        <path d="M135.572 101.385H144.319" stroke="#979797" stroke-width="2"/>
        <path d="M183.68 116.647H192.427" stroke="#979797" stroke-width="2"/>
        <path d="M288.639 116.647H297.386" stroke="#979797" stroke-width="2"/>
        <path d="M183.68 101.385H192.427" stroke="#979797" stroke-width="2"/>
        <path d="M288.639 101.385H297.386" stroke="#979797" stroke-width="2"/>
        <path d="M135.576 621.393L118.082 663.91" stroke="#D5D5D5" stroke-width="2"/>
        <path d="M192.428 621.393L209.921 663.91" stroke="#D5D5D5" stroke-width="2"/>
        <path d="M191.332 555.983C191.332 583.077 213.36 605.041 240.532 605.041C267.704 605.041 289.732 583.077 289.732 555.983C289.732 528.89 267.704 506.926 240.532 506.926C213.36 506.926 191.332 528.89 191.332 555.983Z" stroke="#979797" stroke-width="2"/>
        <path d="M237.254 555.983C237.254 557.789 238.723 559.254 240.534 559.254C242.346 559.254 243.814 557.789 243.814 555.983C243.814 554.177 242.346 552.713 240.534 552.713C238.723 552.713 237.254 554.177 237.254 555.983Z" fill="#979797"/>
        <path d="M38.265 555.983C38.265 583.077 60.2926 605.041 87.465 605.041C114.637 605.041 136.665 583.077 136.665 555.983C136.665 528.89 114.637 506.926 87.465 506.926C60.2926 506.926 38.265 528.89 38.265 555.983Z" stroke="#979797" stroke-width="2"/>
        <path d="M84.1873 555.983C84.1873 557.789 85.6558 559.254 87.4673 559.254C89.2788 559.254 90.7473 557.789 90.7473 555.983C90.7473 554.177 89.2788 552.713 87.4673 552.713C85.6558 552.713 84.1873 554.177 84.1873 555.983Z" fill="#979797"/>
        <path d="M0 621.394H328" stroke="#D5D5D5" stroke-width="2"/>
        <path d="M233.971 402.27C233.971 404.076 235.44 405.54 237.251 405.54C239.063 405.54 240.531 404.076 240.531 402.27C240.531 400.464 239.063 399 237.251 399C235.44 399 233.971 400.464 233.971 402.27Z" fill="#979797"/>
        <path d="M80.9089 402.27C80.9089 404.076 82.3774 405.54 84.1889 405.54C86.0004 405.54 87.4689 404.076 87.4689 402.27C87.4689 400.464 86.0004 399 84.1889 399C82.3774 399 80.9089 400.464 80.9089 402.27Z" fill="#979797"/>
        <path d="M233.971 262.73C233.971 264.536 235.44 266 237.251 266C239.063 266 240.531 264.536 240.531 262.73C240.531 260.923 239.063 259.459 237.251 259.459C235.44 259.459 233.971 260.923 233.971 262.73Z" fill="#979797"/>
        <path d="M80.9089 262.73C80.9089 264.536 82.3774 266 84.1889 266C86.0004 266 87.4689 264.536 87.4689 262.73C87.4689 260.923 86.0004 259.459 84.1889 259.459C82.3774 259.459 80.9089 260.923 80.9089 262.73Z" fill="#979797"/>
        <path d="M160.719 332.5C160.719 334.306 162.187 335.77 163.999 335.77C165.81 335.77 167.279 334.306 167.279 332.5C167.279 330.694 165.81 329.229 163.999 329.229C162.187 329.229 160.719 330.694 160.719 332.5Z" fill="#979797"/>
    </g>
    <rect x="1" y="664" width="663" height="326" rx="44" transform="rotate(-90 1 664)" stroke="#D5D5D5" stroke-width="2"/>
    <defs>
        <clipPath id="clip0_626_25581">
            <rect y="665" width="665" height="328" rx="45" transform="rotate(-90 0 665)" fill="white"/>
        </clipPath>
    </defs>
</svg>
