<svg width="328" height="283" viewBox="0 0 328 283" fill="none" xmlns="http://www.w3.org/2000/svg">
    <g clip-path="url(#clip0_853_25621)">
        <path d="M268 0C301.137 0 328 26.8629 328 60V283H0V60C0 26.8629 26.8629 0 60 0L268 0Z"
            fill="white" />
        <path
            d="M268 1.19141C300.585 1.19141 327 27.6066 327 60.1914V281.204H1.19324V60.1915C1.19324 27.6067 27.6084 1.19141 60.1932 1.19141L268 1.19141Z"
            stroke="#D5D5D5" stroke-width="2" />
        <path d="M164.094 42.8973L164.094 0.926758" stroke="#990011" stroke-width="2" />
        <path
            d="M182.47 43.4818C182.47 48.3682 180.485 53.0546 176.952 56.5098C173.419 59.9651 168.628 61.9063 163.632 61.9062C158.636 61.9062 153.844 59.9651 150.312 56.5098C146.779 53.0546 144.794 48.3682 144.794 43.4818H182.47Z"
            stroke="#D5D5D5" stroke-width="2" />
        <path d="M326.807 43.4814L0 43.4814" stroke="#D5D5D5" stroke-width="2" />
        <path d="M192.312 43.5908L209.795 1.09008" stroke="#D5D5D5" stroke-width="2" />
        <path d="M135.495 43.5908L118.012 1.09008" stroke="#D5D5D5" stroke-width="2" />
        <path
            d="M268 1.19141C300.585 1.19141 327 27.6066 327 60.1914V248.806L1.19324 248.806V60.1914C1.19324 27.6066 27.6084 1.19141 60.1932 1.19141L268 1.19141Z"
            stroke="#990011" stroke-width="2" />
        <ellipse cx="87.2742" cy="109.618" rx="49.0828" ry="49.2"
            transform="rotate(-90 87.2742 109.618)" stroke="#D5D5D5" stroke-width="2" />
        <ellipse cx="87.2722" cy="109.617" rx="3.27219" ry="3.28"
            transform="rotate(-90 87.2722 109.617)" fill="#D5D5D5" />
        <ellipse cx="240.342" cy="109.618" rx="49.0828" ry="49.2"
            transform="rotate(-90 240.342 109.618)" stroke="#D5D5D5" stroke-width="2" />
        <ellipse cx="240.34" cy="109.617" rx="3.27219" ry="3.28"
            transform="rotate(-90 240.34 109.617)" fill="#D5D5D5" />
        <path d="M327.807 158.701L-0.193359 158.701" stroke="#990011" stroke-width="2" />
        <path

            d="M207.54 248.681L240.34 158.7V109.618L183.207 43.4814H144.053L87.2715 109.618V158.7L120.071 248.681"
            stroke="#990011" stroke-width="2" />
    </g>
    <defs>
        <clipPath id="clip0_853_25621">

            <path d="M268 0C301.137 0 328 26.8629 328 60V283H0V60C0 26.8629 26.8629 0 60 0L268 0Z"
                fill="white" />
        </clipPath>
    </defs>
</svg>
